<?xml version="1.0" encoding="UTF-8" standalone="no"?>
<!-- Created with Inkscape (http://www.inkscape.org/) -->

<svg
   version="1.1"
   id="svg1"
   width="1000"
   height="302.31216"
   viewBox="0 0 1000 302.31216"
   sodipodi:docname="Bilibili_2020.svg"
   xml:space="preserve"
   inkscape:version="1.3.2 (091e20e, 2023-11-25, custom)"
   xmlns:inkscape="http://www.inkscape.org/namespaces/inkscape"
   xmlns:sodipodi="http://sodipodi.sourceforge.net/DTD/sodipodi-0.dtd"
   xmlns="http://www.w3.org/2000/svg"
   xmlns:svg="http://www.w3.org/2000/svg"><defs
     id="defs1"><clipPath
       clipPathUnits="userSpaceOnUse"
       id="clipPath25"><path
         id="path26"
         style="fill:#ff0000;fill-opacity:1;fill-rule:nonzero;stroke:none"
         d="M 5.9648438,5.765625 V 384.85938 H 785.25586 c 0.72345,-3.9212 1.43955,-8.00466 2.18359,-12.87696 1.50615,-9.86292 2.55744,-19.79254 3.50586,-29.72461 3.04811,-31.92058 4.07774,-64.04151 3.20703,-96.09179 -2.83233,-66.7889 0.18771,-1.90277 -3.73437,-68.93946 -0.6693,-11.43959 -0.87666,-22.90651 -1.75391,-34.33203 C 786.09167,109.39091 781.76512,75.838964 772.89258,43.367188 767.80309,26.716966 765.85016,19.291579 760.5918,5.765625 Z" /></clipPath></defs><sodipodi:namedview
     id="namedview1"
     pagecolor="#ffffff"
     bordercolor="#000000"
     borderopacity="0.25"
     inkscape:showpageshadow="2"
     inkscape:pageopacity="0.0"
     inkscape:pagecheckerboard="0"
     inkscape:deskcolor="#d1d1d1"
     inkscape:zoom="0.716"
     inkscape:cx="500"
     inkscape:cy="151.53631"
     inkscape:window-width="1366"
     inkscape:window-height="705"
     inkscape:window-x="-8"
     inkscape:window-y="-8"
     inkscape:window-maximized="1"
     inkscape:current-layer="svg1" /><g
     id="layer1"
     transform="matrix(2.1716896,0,0,2.1716896,-69.240687,-172.37001)"
     style="display:inline;fill:#23aee5;fill-opacity:1"><path
       id="path44598"
       style="fill:#23aee5;fill-opacity:1;stroke:none;stroke-width:0.755906;stroke-linecap:square"
       d="m 313.27503,623.39312 c 0.45153,27.99869 23.33603,53.18509 45.45935,51.32368 15.19729,5.3e-4 28.64783,-8.44394 36.9093,-21.41059 0.6209,-0.97454 1.55652,-0.9745 2.17738,6e-5 8.26164,12.9682 21.71663,21.41106 36.91527,21.41053 27.84035,-0.91792 44.76179,-26.48794 45.34967,-51.31609 0.10966,-4.63165 -4.197,-8.37723 -8.83451,-8.37718 l -0.0126,10e-6 c -4.63751,5e-5 -8.83959,3.74483 -9.89056,8.25984 -9.00531,38.68707 -40.71112,42.11427 -54.63484,3.89647 -1.5356,-4.21492 -6.05639,-7.75385 -10.54387,-7.75357 -4.44845,2.8e-4 -8.78978,3.57478 -10.18139,7.83917 -12.68841,38.88192 -46.58244,34.2531 -53.84623,-3.92179 -0.86643,-4.55353 -4.86239,-8.32007 -9.4999,-8.32012 l -0.42289,-10e-6 c -4.63751,-5e-5 -9.01888,3.73788 -8.94419,8.36959 z"
       transform="scale(0.26458333)" /><path
       id="path27775"
       style="fill:#23aee5;fill-opacity:1;stroke:none;stroke-width:0.755906;stroke-linecap:square"
       d="m 288.23242,299.98633 a 28.50334,28.50334 0 0 0 -23.39062,44.79101 l 22.22851,31.91993 c -27.71479,1.69148 -55.16652,3.89439 -82.04297,6.84375 -36.24793,3.97776 -70.51064,37.72805 -74.75,73.94531 -6.44428,55.05411 -9.74291,111.96081 -9.77343,169.23633 0.0266,38.11643 1.50098,76.10765 4.39453,113.53125 2.81104,36.35645 35.8082,70.45915 72.03515,74.62304 64.39203,7.40116 131.84679,11.21132 199.89453,11.24219 68.06802,-0.002 135.55567,-3.78585 199.99024,-11.16406 36.22873,-4.14845 69.21124,-38.23964 72.00195,-74.59766 2.87544,-37.4619 4.32844,-75.48794 4.33203,-113.63476 -0.004,-57.25831 -3.27276,-114.15769 -9.6875,-169.21289 -4.2201,-36.21952 -38.46722,-69.97445 -74.71484,-73.95508 -27.5684,-3.0275 -55.73128,-5.29058 -84.17773,-6.99414 l 22.13281,-31.78321 a 28.50334,28.50334 0 0 0 -23.39063,-44.79101 h -2.04297 a 22.500941,22.500941 0 0 0 -18.46484,9.64258 L 438.125,373.79102 c -13.73523,-0.31455 -27.49396,-0.55938 -41.29688,-0.56446 -14.50233,0.005 -28.96215,0.24497 -43.38867,0.5918 l -44.70117,-64.18945 a 22.500942,22.500942 0 0 0 -18.46484,-9.64258 z m 108.5957,129.72265 c 60.30132,0.003 120.27871,2.01152 178.36133,5.96485 19.2039,1.30709 36.21086,18.15506 37.6211,37.35156 3.5996,48.99853 5.42178,99.1071 5.42578,149.41016 -0.0142,34.74095 -0.89623,69.4097 -2.63477,103.70312 -0.97456,19.22357 -17.61449,36.12497 -36.8164,37.46094 -59.19482,4.11844 -120.40359,6.21475 -181.95704,6.21875 -61.55344,-0.004 -122.76221,-2.10031 -181.95703,-6.21875 -19.20191,-1.33597 -35.84211,-18.23736 -36.8164,-37.46094 -1.73805,-34.29352 -2.61912,-68.96229 -2.63281,-103.70312 0.02,-50.2996 1.85789,-100.40027 5.47265,-149.38477 1.41656,-19.19604 18.42909,-36.04383 37.63281,-37.35351 58.0591,-3.95961 118.01562,-5.97709 178.30078,-5.98829 z"
       transform="scale(0.26458333)" /><path
       id="rect32850"
       style="fill:#23aee5;fill-opacity:1;stroke:none;stroke-width:0.2;stroke-linecap:square"
       d="m 60.726198,145.6135 c 7.828382,-2.78092 16.940151,-6.03075 23.102933,-8.20251 3.197125,-1.12666 6.742407,0.56084 7.909625,3.74351 l 0.02565,0.0699 c 1.126413,3.07141 -0.548435,6.15025 -3.690608,7.05937 -8.519617,2.46497 -16.392434,5.73844 -24.535696,8.67385 -2.271242,0.81872 -4.842507,-0.37841 -5.726085,-2.62601 l -0.490803,-1.24848 c -1.193204,-3.03521 0.331801,-6.37797 3.404981,-7.46967 z" /><path
       id="path38085"
       style="fill:#23aee5;fill-opacity:1;stroke:none;stroke-width:0.2;stroke-linecap:square"
       d="m 149.15849,145.6135 c -7.82842,-2.78092 -16.94025,-6.03075 -23.10306,-8.20251 -3.19714,-1.12666 -6.74244,0.56084 -7.90966,3.74351 l -0.0256,0.0699 c -1.12642,3.07141 0.54844,6.15025 3.69063,7.05937 8.51965,2.46497 16.39251,5.73844 24.53582,8.67385 2.27126,0.81872 4.84254,-0.37841 5.72612,-2.62601 l 0.49081,-1.24848 c 1.19321,-3.03521 -0.33181,-6.37797 -3.40501,-7.46967 z" /></g><g
     id="g1-2"
     transform="matrix(0.65098717,0,0,0.65098717,349.01283,7.5285226)"
     style="display:inline;fill:#23aee5;fill-opacity:1"><path
       id="path1"
       clip-path="url(#clipPath25)"
       style="display:inline;fill:#23aee5;fill-opacity:1"
       d="M 72.880859,5.8007812 C 72.234483,4.7608011 8.4885386,27.340987 6.3066406,29.382812 5.3869027,30.243528 6.2300332,36.807864 9.984375,58 c 16.303997,92.03115 30.741324,203.44292 38.990234,300.89453 1.089095,12.86645 2.153796,23.56591 2.365235,23.77735 0.21144,0.21125 4.607992,0.76014 9.771484,1.21874 45.085732,4.00593 90.582052,-4.45711 131.527342,-24.46679 26.81472,-13.10417 43.52969,-26.89151 51.04883,-42.10547 3.46312,-7.00695 3.8125,-8.45308 3.8125,-15.76563 0,-10.14206 -2.51761,-15.76757 -10.54297,-23.55468 -9.36354,-9.08557 -34.42885,-22.10683 -56.45703,-29.32813 -24.30987,-7.9693 -46.4546,-10.99006 -77,-10.5039 l -21,0.33398 -1.191406,-9 C 77.824244,203.17275 74.479856,161.66269 73.009766,126.5 71.920545,100.44745 71.84261,44.128202 72.863281,21.148438 73.213863,13.255446 73.221691,6.3491523 72.880859,5.8007812 Z M 113.12109,279.07617 c 2.45721,0.0925 6.70791,1.02462 13.87891,2.83789 19.92505,5.03825 50.10034,17.69174 50.80078,21.30274 0.64465,3.32315 -27.38029,24.84757 -47.08594,36.16406 -10.15903,5.83399 -11.21335,6.24037 -12.17187,4.68945 C 117.54131,342.44959 110,287.01525 110,281.27344 c 0,-1.54339 0.66407,-2.28974 3.12109,-2.19727 z"
       transform="matrix(1.1764648,0,0,1.1764648,-7.0175036,-6.7834404)" /><path
       style="display:inline;fill:#23aee5;fill-opacity:1;fill-rule:evenodd;stroke-width:9.20231;paint-order:stroke fill markers"
       d="m 262.44222,144.37007 25.55482,-3.39879 10.60322,69.69964 -24.02937,2.5821 z"
       id="path2"
       sodipodi:nodetypes="ccccc" /><path
       style="display:inline;fill:#23aee5;fill-opacity:1;fill-rule:evenodd;stroke-width:9.20231;paint-order:stroke fill markers"
       d="m 298.50316,139.19313 8.54252,70.0989 24.37567,-2.53428 -8.29563,-70.32838 z"
       id="path3"
       sodipodi:nodetypes="ccccc" /><path
       style="display:inline;fill:#23aee5;fill-opacity:1;fill-rule:evenodd;stroke-width:9.20231;paint-order:stroke fill markers"
       d="m 278.40312,235.9246 55.83859,-6.1772 22.55158,186.07259 -41.70759,4.5225 z"
       id="path4"
       sodipodi:nodetypes="ccccc" /><path
       style="display:inline;fill:#23aee5;fill-opacity:1;fill-rule:evenodd;stroke-width:9.20231;paint-order:stroke fill markers"
       d="M 341.19799,51.489357 390.23242,46.51485 420.7901,397.57293 H 383.83662 Z"
       id="path5" /><path
       style="display:inline;fill:#23aee5;fill-opacity:1;fill-rule:evenodd;stroke-width:9.20231;paint-order:stroke fill markers"
       d="m 430.19798,140.38172 6.46363,69.98789 h 20.48447 l -1.36588,-69.98789 z"
       id="path6"
       sodipodi:nodetypes="ccccc" /><path
       style="display:inline;fill:#23aee5;fill-opacity:1;fill-rule:evenodd;stroke-width:9.20231;paint-order:stroke fill markers"
       d="m 464.84957,140.38172 h 25.40575 l -0.3551,69.93654 -22.38529,0.35533 z"
       id="path7"
       sodipodi:nodetypes="ccccc" /><path
       style="display:inline;fill:#23aee5;fill-opacity:1;fill-rule:evenodd;stroke-width:9.20231;paint-order:stroke fill markers"
       d="m 437.69596,232.90959 53.76762,0.5025 -0.50249,187.93541 H 451.766 Z"
       id="path8" /><path
       id="path1-6"
       style="display:inline;fill:#23aee5;fill-opacity:1;stroke-width:1.17646"
       d="m 587.05354,0.27534827 c -1.98774,0 -76.74101,27.13825973 -78.07866,28.34544773 -0.63369,0.571895 -0.5453,3.959854 0.22059,8.366227 25.27859,145.437367 42.43101,275.909577 50.93036,387.403877 0.7399,9.70561 1.76143,18.09254 2.2679,18.63732 0.50646,0.54477 5.8749,1.43466 11.9301,1.97839 14.82003,1.33078 50.54583,0.35907 65.4822,-1.78078 53.69944,-7.69394 109.98639,-32.22591 135.70706,-59.14723 22.65744,-23.7153 24.19974,-45.98937 4.4508,-64.27358 -14.23876,-13.18259 -45.61315,-28.51122 -75.80845,-37.04026 -25.72402,-7.26621 -37.87583,-8.77139 -72.89255,-9.02799 l -31.71631,-0.23208 -0.86856,-2.7918 C 596.35731,263.24517 590.57944,199.56321 588.17716,154.98047 586.62874,126.24399 586.27004,39.993671 587.60041,16.451739 588.31206,3.8606483 588.19078,0.27534827 587.05354,0.27534827 Z M 634.67279,321.60878 c 9.94018,0.40635 43.28536,10.69995 62.42386,19.74714 16.28943,7.70049 16.31755,7.76095 7.61255,15.82024 -13.24977,12.26693 -34.18302,27.11302 -53.01903,37.60091 -4.26804,2.37645 -8.33645,4.31984 -9.03948,4.31984 -1.86219,0 -2.24741,-1.84974 -5.51698,-26.47046 -5.39039,-40.59137 -6.29014,-49.37118 -5.17919,-50.55352 0.35514,-0.37797 1.29821,-0.5222 2.71827,-0.46415 z" /><path
       style="display:inline;fill:#23aee5;fill-opacity:1;fill-rule:evenodd;stroke-width:9.20231;paint-order:stroke fill markers"
       d="m 770.979,144.3707 25.55482,-3.39879 10.60322,69.69964 -24.02937,2.5821 z"
       id="path2-2"
       sodipodi:nodetypes="ccccc" /><path
       style="display:inline;fill:#23aee5;fill-opacity:1;fill-rule:evenodd;stroke-width:9.20231;paint-order:stroke fill markers"
       d="m 807.03994,139.19376 8.54252,70.0989 24.37567,-2.53428 L 831.6625,136.43 Z"
       id="path3-0"
       sodipodi:nodetypes="ccccc" /><path
       style="display:inline;fill:#23aee5;fill-opacity:1;fill-rule:evenodd;stroke-width:9.20231;paint-order:stroke fill markers"
       d="m 786.93954,235.92487 55.83859,-6.1772 22.55158,186.07259 -41.70759,4.52251 z"
       id="path4-6"
       sodipodi:nodetypes="ccccc" /><path
       style="display:inline;fill:#23aee5;fill-opacity:1;fill-rule:evenodd;stroke-width:9.20231;paint-order:stroke fill markers"
       d="M 849.73441,51.489626 898.76884,46.515119 929.32653,397.5732 H 892.37304 Z"
       id="path5-9" /><path
       style="display:inline;fill:#23aee5;fill-opacity:1;fill-rule:evenodd;stroke-width:9.20231;paint-order:stroke fill markers"
       d="m 938.7344,140.38199 6.46364,69.98789 h 20.48446 l -1.36588,-69.98789 z"
       id="path6-6"
       sodipodi:nodetypes="ccccc" /><path
       style="display:inline;fill:#23aee5;fill-opacity:1;fill-rule:evenodd;stroke-width:9.20231;paint-order:stroke fill markers"
       d="m 973.38599,140.38199 h 25.40576 l -0.35511,69.93654 -22.38529,0.35533 z"
       id="path7-7"
       sodipodi:nodetypes="ccccc" /><path
       style="display:inline;fill:#23aee5;fill-opacity:1;fill-rule:evenodd;stroke-width:9.20231;paint-order:stroke fill markers"
       d="M 946.23238,232.90986 1000,233.41236 999.49751,421.34777 H 960.30242 Z"
       id="path8-9" /></g></svg>
